<svg xmlns="http://www.w3.org/2000/svg" width="79.177" height="78.724" viewBox="0 0 79.177 78.724"><defs><style>.a{fill:#8a847d;}</style></defs><path class="a" d="M198.637,121.942h-.462c-.293-.077-.585-.185-.893-.246-12.584-2.572-21.919-9.55-27.88-20.887a38.031,38.031,0,0,1-4.082-22.227A38.858,38.858,0,0,1,175.548,55.97,38.067,38.067,0,0,1,188.455,46.7a39.571,39.571,0,0,1,55.082,28.7c.354,1.848.462,3.712.709,5.561v3.7a6.215,6.215,0,0,0-.154,1.6,39.646,39.646,0,0,1-26.863,34.087c-2,.678-4.066,1.063-6.1,1.587h-.462q0-13.239.015-26.478c0-1.371,0-1.386,1.34-1.386,2.31,0,4.621-.015,6.931,0,.678,0,1.017-.2,1.109-.94.416-2.973.893-5.93,1.355-8.9.2-1.278.185-1.294-1.124-1.294h-8.7c-.508,0-.924-.077-.909-.724.031-2.649-.123-5.283.123-7.917a5.318,5.318,0,0,1,4.529-4.944,31.313,31.313,0,0,1,5.761-.231c.739,0,1-.277.986-1-.031-2.11,0-4.205-.015-6.315-.015-2.418.339-2.126-2.126-2.449a34.943,34.943,0,0,0-9.735-.216,12.763,12.763,0,0,0-9.442,6.1,15.766,15.766,0,0,0-2.141,8.241c-.015,2.742,0,5.5,0,8.241,0,1.186-.031,1.217-1.186,1.217h-7.625c-1.124,0-1.186.077-1.186,1.171v8.7c0,1.2.046,1.248,1.278,1.248H197.3c1.34,0,1.34,0,1.34,1.386v19.023C198.622,116.967,198.637,119.447,198.637,121.942Z" transform="translate(-165.068 -43.219)"/></svg>