<svg xmlns="http://www.w3.org/2000/svg" width="85.617" height="60.285" viewBox="0 0 85.617 60.285"><defs><style>.a{fill:#8a847d;}</style></defs><path class="a" d="M245.917,101.22v25.765c-.062.51-.124,1.021-.17,1.531a38.359,38.359,0,0,1-1.036,6.356,10.512,10.512,0,0,1-8.073,7.856,39.033,39.033,0,0,1-6.557.851c-2.15.17-4.284.294-6.434.4-3,.139-5.985.232-8.985.294-1.469.031-2.938.062-4.408.062a2.348,2.348,0,0,0-.325.046H196.675a2.347,2.347,0,0,0-.325-.046c-1.191-.015-2.382-.031-3.573-.062-2.242-.046-4.47-.124-6.712-.2-2.877-.108-5.769-.247-8.645-.464a62.659,62.659,0,0,1-6.82-.82,10.823,10.823,0,0,1-7.362-5.026,13.6,13.6,0,0,1-1.686-5.042,74.823,74.823,0,0,1-.882-7.655c-.17-2.32-.294-4.64-.325-6.975a2.345,2.345,0,0,0-.046-.325v-7.021a22.779,22.779,0,0,0,.093-2.3c.124-2.923.294-5.846.619-8.769a34.545,34.545,0,0,1,1.021-6.047,10.705,10.705,0,0,1,8.027-7.856,37.677,37.677,0,0,1,6.588-.866c2.134-.17,4.268-.294,6.4-.387,2.923-.124,5.861-.247,8.784-.294,1.454-.031,2.892-.046,4.346-.077a2.345,2.345,0,0,0,.325-.046h13.579a3.216,3.216,0,0,0,.356.046c2.49,0,4.964.093,7.454.155,1.33.031,2.676.077,4.006.139,2.768.139,5.537.263,8.3.51a47.709,47.709,0,0,1,5.923.758,10.648,10.648,0,0,1,8.444,7.47,28.617,28.617,0,0,1,1.036,5.367C245.716,99.426,245.824,100.323,245.917,101.22Zm-51.1,13.022v12.542c0,.2.093.232.263.139a1.693,1.693,0,0,0,.17-.093l21.435-12.341c.124-.062.325-.108.325-.247s-.216-.17-.34-.247q-9-5.2-18.017-10.377l-3.48-2c-.309-.186-.356-.155-.371.2v.294Q194.827,108.172,194.819,114.242Z" transform="translate(-160.3 -84.1)"/></svg>