<svg xmlns="http://www.w3.org/2000/svg" width="1920" height="2231.004" viewBox="0 0 1920 2231.004">
  <g id="Groupe_321" data-name="Groupe 321" transform="translate(-0.002 -7520.995)">
    <path id="Soustraction_60" data-name="Soustraction 60" d="M26124,10725H24204V9728h283l0-.007c.326.007.662.007.988.007a286.231,286.231,0,0,0,57.117-5.743,282.492,282.492,0,0,0,101.381-42.563,284.772,284.772,0,0,0,102.912-124.5,281.842,281.842,0,0,0,16.654-53.132,285.908,285.908,0,0,0,5.939-55.912V8687h228v758a25,25,0,1,0,50,0V9445h.008V8494H25278V9359a25,25,0,1,0,50,0V8642h228v803a285.869,285.869,0,0,0,5.941,57.059,282.373,282.373,0,0,0,42.891,101.209,284.758,284.758,0,0,0,124.838,102.508,282.852,282.852,0,0,0,53.211,16.482A286.231,286.231,0,0,0,25840,9728h284v997h0Z" transform="translate(-24204 -973.003)" fill="#efe5d9"/>
  </g>
</svg>
