<svg xmlns="http://www.w3.org/2000/svg" width="69.352" height="69.367" viewBox="0 0 69.352 69.367"><defs><style>.a{fill:#8a847d;}</style></defs><path class="a" d="M269.537,96.683v14.2a3.746,3.746,0,0,0-.03.395c0,1.975-.015,3.964-.121,5.939-.061,1.109-.106,2.233-.228,3.342a23.869,23.869,0,0,1-1.109,5.058,17.795,17.795,0,0,1-11.483,11.392,25.445,25.445,0,0,1-6.47,1.185c-1.245.091-2.491.137-3.752.167-1.215.046-2.43.046-3.63.076a1.48,1.48,0,0,0-.365.03H227.51a.888.888,0,0,0-.289-.03c-1.975-.03-3.964-.076-5.939-.167-.9-.046-1.792-.091-2.673-.167a24.732,24.732,0,0,1-4.086-.714,18.11,18.11,0,0,1-7.9-4.192,17.616,17.616,0,0,1-3.782-4.876,22.552,22.552,0,0,1-2.263-7.913c-.182-1.7-.228-3.4-.289-5.1-.015-.516-.03-1.018-.046-1.534a2.3,2.3,0,0,0-.046-.319v-19.4a2.3,2.3,0,0,0,.046-.319c.03-.942.076-1.883.106-2.825.046-1.4.121-2.78.289-4.177a22.866,22.866,0,0,1,1.519-6.015,17.5,17.5,0,0,1,7.488-8.612,19.49,19.49,0,0,1,5.6-2.157,30.413,30.413,0,0,1,5.483-.683c1.4-.061,2.78-.152,4.177-.137a1.86,1.86,0,0,0,.289-.03h19.351a.887.887,0,0,0,.289.03c1.185,0,2.369.061,3.554.106,1.276.046,2.552.122,3.828.289a22.9,22.9,0,0,1,4.253.942,17.788,17.788,0,0,1,6.881,4.01,17.463,17.463,0,0,1,4.025,5.589,24.1,24.1,0,0,1,1.929,7.9c.122,1.519.182,3.053.213,4.587.03,1.2.015,2.4.03,3.615A1.2,1.2,0,0,0,269.537,96.683Zm-6.319,7.093c0-4.086.061-8.187-.106-12.273-.046-1.245-.091-2.476-.228-3.721a17.368,17.368,0,0,0-1.109-4.617,11.153,11.153,0,0,0-5.346-5.863,15.807,15.807,0,0,0-5.878-1.58c-.7-.061-1.4-.091-2.1-.137-1.367-.076-2.734-.137-4.1-.137-4.177-.03-8.354-.03-12.531-.03-3.554,0-7.124-.015-10.678.182-.957.061-1.9.106-2.84.243a17.8,17.8,0,0,0-3.752.911,11.391,11.391,0,0,0-5.438,4.253,12.045,12.045,0,0,0-1.7,3.8,21.459,21.459,0,0,0-.684,4.5c-.076,1.5-.152,3.023-.167,4.526-.046,2.172-.061,4.344-.061,6.531,0,2.81-.015,5.62.015,8.43.03,2.537,0,5.058.122,7.594.061,1.2.091,2.4.243,3.6a16.176,16.176,0,0,0,1.018,4.223,11.2,11.2,0,0,0,6.243,6.425,17.894,17.894,0,0,0,5.7,1.245c.5.046,1,.046,1.5.076,1.337.076,2.673.137,4.01.137,4.3.046,8.582.046,12.88.03,2.491-.015,4.982.015,7.473-.061.957-.03,1.929-.076,2.886-.106.972-.046,1.944-.106,2.9-.243a15.864,15.864,0,0,0,4.177-1.109,11.215,11.215,0,0,0,5.893-5.681A16.133,16.133,0,0,0,262.9,119.8c.122-1.094.167-2.2.213-3.311.061-1.428.106-2.871.122-4.3C263.234,109.4,263.218,106.586,263.218,103.776Z" transform="translate(-200.2 -69.1)"/><path class="a" d="M328.929,215.846a17.824,17.824,0,1,1,17.832-17.953A17.82,17.82,0,0,1,328.929,215.846Zm11.5-17.832a11.506,11.506,0,1,0-11.528,11.5A11.473,11.473,0,0,0,340.427,198.015Z" transform="translate(-294.253 -163.323)"/><path class="a" d="M522.695,152.292a4.192,4.192,0,1,1,4.177,4.192A4.15,4.15,0,0,1,522.695,152.292Z" transform="translate(-473.711 -136.1)"/></svg>