<svg xmlns="http://www.w3.org/2000/svg" width="207.044" height="157.306" viewBox="0 0 207.044 157.306">
  <g id="Groupe_308" data-name="Groupe 308" transform="translate(-1298.813 -2421.311)">
    <path id="Tracé_21" data-name="Tracé 21" d="M1132.27-309c1.58.246,3.185.4,4.739.764,8.157,1.9,13.4,7.9,14.3,16.263.065.57.116,1.126.194,1.8h-15.02c-.078-.246-.194-.544-.285-.842a5.347,5.347,0,0,0-4.868-4.1,5.2,5.2,0,0,0-5.464,3.25,13.05,13.05,0,0,0,.311,11.278,5.011,5.011,0,0,0,5.412,2.745c2.2-.233,3.315-1.67,4.053-3.561a.888.888,0,0,0,.065-.311,1.521,1.521,0,0,0-.065-.35h-5.814v-5.438H1151.6v22.439h-10.061v-2.862c-.181-.013-.272-.052-.311-.026-4.972,4.2-10.7,4.558-16.613,2.913-8.365-2.331-12.806-8.352-14.36-16.639a24.711,24.711,0,0,1,2.188-16.3c3.405-6.565,8.882-10.113,16.211-10.838.272-.026.544-.13.816-.181Z" transform="translate(283.052 2730.311)" fill="#fec959"/>
    <path id="Tracé_22" data-name="Tracé 22" d="M1606.914-309c1.515.233,3.056.388,4.545.725,7.627,1.748,12.586,7.173,13.816,15.059.155.984.259,1.981.4,3.146H1624.5c-4.066,0-8.145-.013-12.21.013-.738,0-1.114-.117-1.347-.958a5.107,5.107,0,0,0-4.92-4.1,5.275,5.275,0,0,0-5.438,3.626,13.676,13.676,0,0,0-.052,9.724,5.324,5.324,0,0,0,5.076,3.69,5.65,5.65,0,0,0,5.166-3.781,1.381,1.381,0,0,1,1.606-1.1c3.962.039,7.924.013,11.886.013h1.463c-.492,2.072-.842,4.014-1.437,5.879-2.551,8-8.6,12.5-17.027,12.845-5.426.22-10.475-.79-14.813-4.234a19.918,19.918,0,0,1-7.238-12.65c-1.049-6.034-.686-11.938,2.3-17.428,3.392-6.228,8.766-9.53,15.784-10.268a5.418,5.418,0,0,0,.79-.194Z" transform="translate(-130.372 2730.311)" fill="#fec959"/>
    <path id="Tracé_23" data-name="Tracé 23" d="M997.808,577.343c.142-.621.259-1.23.414-1.852,1.9-7.575,6.15-13.065,13.971-15.1a23.81,23.81,0,0,1,14.463.738c5.516,2.033,8.507,6.138,8.921,11.977a24.256,24.256,0,0,1-.376,5.8c-.932,5.063-4.117,8.248-9.206,8.96a73.332,73.332,0,0,1-8.934.414,2.143,2.143,0,0,1-1.359-.868c-1.554-1.955-1.463-4.286-1.385-6.6,0-.039.013-.078.013-.1.388-3.768.388-3.755,4.143-3.781a9.622,9.622,0,0,0,1.929-.155,1.54,1.54,0,0,0,1.282-1.644,1.518,1.518,0,0,0-1.321-1.619c-2.292-.466-5.205-.026-6.539,2.771a13.206,13.206,0,0,0-.375,10.6,4.249,4.249,0,0,0,4.377,2.887c4.972-.052,9.944-.013,14.916-.013h1.334v13.725a1.446,1.446,0,0,1-.388.1c-5.659-.013-11.317.155-16.975-.1-9.7-.427-16.677-6.526-18.736-16a3.684,3.684,0,0,0-.194-.57c-.531,1.826-.919,3.69-1.606,5.425-2.68,6.8-7.795,10.618-14.929,11.757a25.34,25.34,0,0,1-10.928-.557,17.737,17.737,0,0,1-12.547-11.628,28.205,28.205,0,0,1,.065-19.785c2.836-7.562,8.624-11.472,16.535-12.3a23.379,23.379,0,0,1,11.265,1.347c6.642,2.654,10.216,7.795,11.731,14.58.116.518.207,1.036.3,1.554C997.7,577.317,997.756,577.33,997.808,577.343Zm-26.92,4.416a47.455,47.455,0,0,0,.777,4.7,5.611,5.611,0,0,0,10.7.3,15.258,15.258,0,0,0-.091-9.957c-.79-2.253-2.654-3.354-5.257-3.328s-4.467,1.139-5.179,3.431A43.954,43.954,0,0,0,970.889,581.759Z" transform="translate(416.892 1974.176)" fill="#fec959"/>
    <path id="Tracé_24" data-name="Tracé 24" d="M487.079-289.311c1.088-2.525,2.085-4.83,3.082-7.135.816-1.878,1.593-3.781,2.447-5.645.129-.285.518-.66.8-.66,4.791-.039,9.582-.026,14.45-.026v43.1H495.275v-14.386a1.522,1.522,0,0,1-.259-.091c-.155.311-.337.622-.479.945-1.89,4.234-3.794,8.468-5.658,12.728-.285.66-.66.8-1.36.919-2.175.35-3.2-.531-4-2.577-1.58-4.053-3.509-7.963-5.5-11.925v14.386H465.3v-43.1h1.023c4.61,0,9.232.026,13.842-.026a1.3,1.3,0,0,1,1.411.958C483.35-297.753,485.163-293.674,487.079-289.311Z" transform="translate(844.066 2724.917)" fill="#fec959"/>
    <path id="Tracé_25" data-name="Tracé 25" d="M1084.21,144.962h-15.02c-.142-.427-.272-.842-.4-1.243a5.174,5.174,0,0,0-4.687-3.729,4.924,4.924,0,0,0-5.283,2.81,12.791,12.791,0,0,0,.091,11.744,5.082,5.082,0,0,0,5.646,2.68c1.9-.272,3.289-1.709,3.91-4.143h-5.853v-5.464h21.662V170h-10.087v-3.082a14.385,14.385,0,0,1-7.782,3.729,20.023,20.023,0,0,1-22.97-14.942c-1.813-7.07-1.321-13.984,2.667-20.29,4.325-6.824,10.812-9.517,18.71-9.193a21.425,21.425,0,0,1,10.9,3.043c4.687,2.965,7.147,7.368,8.106,12.715C1083.99,142.916,1084.068,143.875,1084.21,144.962Z" transform="translate(341.665 2351.462)" fill="#fec959"/>
    <path id="Tracé_26" data-name="Tracé 26" d="M828.081-276.213c-1.618,0-3.095-.013-4.558,0-1.567.013-2.37.66-2.408,1.878-.026,1.269.919,2.072,2.473,2.085.466,0,.932-.013,1.4-.052,2.836-.246,4.247-1.437,4.791-4.234a21.574,21.574,0,0,0,.039-8.688c-.531-2.564-1.826-3.651-4.441-3.69-4.04-.065-8.067-.039-12.107-.052h-1.385v-13.777a2.678,2.678,0,0,1,.479-.065c6.163,0,12.327-.078,18.49.013,7.251.117,12.534,4.584,14,11.731a22.779,22.779,0,0,1,.479,4.389c.039,8.688.026,17.364.026,26.052,0,.285-.026.57-.052.919H831.486v-2.952c-4.92,4.752-10.669,4.6-16.457,2.732-5.063-1.632-7.419-5.762-7.924-10.851a26.2,26.2,0,0,1,.259-7.186c.893-4.972,4.545-8.222,10.048-9a77.485,77.485,0,0,1,8.507-.466,2,2,0,0,1,2.072,1.852,57.208,57.208,0,0,1,.492,6.306A15.829,15.829,0,0,1,828.081-276.213Z" transform="translate(546.635 2724.948)" fill="#fec959"/>
    <path id="Tracé_27" data-name="Tracé 27" d="M1694.843,174.818H1679.9V131.765c.3-.026.609-.065.906-.065,6.888.013,13.764,0,20.653.052a18.648,18.648,0,0,1,7.057,1.411,11.264,11.264,0,0,1,7.005,8.572,20.2,20.2,0,0,1-.259,9.31,12.734,12.734,0,0,1-5.335,7.355c3.043,5.438,6.086,10.851,9.193,16.393-.44.039-.751.078-1.049.078-4.869,0-9.737-.013-14.593.026a1.489,1.489,0,0,1-1.5-.919c-2.111-3.936-4.247-7.847-6.4-11.77a2.472,2.472,0,0,0-.725-.868C1694.843,165.819,1694.843,170.286,1694.843,174.818Zm.026-29.224v4.933c1.411,0,2.771.065,4.117-.026,1.126-.078,1.787-1.075,1.8-2.434s-.622-2.357-1.774-2.447C1697.665,145.5,1696.306,145.594,1694.869,145.594Z" transform="translate(-213.264 2346.675)" fill="#fec959"/>
    <path id="Tracé_28" data-name="Tracé 28" d="M1409.712,156.129v13.712a2.261,2.261,0,0,1-.492.117c-5.762-.026-11.537.142-17.3-.129-10.423-.5-18.179-8.494-18.762-18.917a29.027,29.027,0,0,1,1.787-12.612,18.8,18.8,0,0,1,17.83-12.223,26.917,26.917,0,0,1,8.844,1.178c5.723,1.89,9.245,6.293,9.556,12.288a24.594,24.594,0,0,1-.44,6.008,10.21,10.21,0,0,1-9.025,8.649,74.234,74.234,0,0,1-9.155.466,1.326,1.326,0,0,1-.984-.531,8.924,8.924,0,0,1-1.359-2.538,13.669,13.669,0,0,1,.168-7.147c.233-.855.622-1.256,1.58-1.178a24.546,24.546,0,0,0,3.237,0c1.334-.065,2.033-.7,2.046-1.748s-.66-1.631-2.033-1.761a5.667,5.667,0,0,0-6.422,4.247,15.562,15.562,0,0,0-.207,8.119c.635,2.719,2.4,4,5.218,4h15.913Z" transform="translate(53.817 2351.573)" fill="#fec959"/>
    <path id="Tracé_29" data-name="Tracé 29" d="M772.488,169.5V143.164c0-2.952-2.292-4.48-5.076-3.392a2.45,2.45,0,0,0-1.619,2.111,16.137,16.137,0,0,0-.116,1.942q-.019,12.158,0,24.317v1.373H750.645v-1.088c0-8.391-.078-16.794.052-25.184a25.337,25.337,0,0,1,1.152-7.1c1.722-5.451,5.646-8.649,11.161-9.867a27.329,27.329,0,0,1,11.9.026,15.14,15.14,0,0,1,12.275,13.505,41.232,41.232,0,0,1,.324,5.063c.039,7.743.013,15.5.013,23.242V169.5Z" transform="translate(595.689 2351.953)" fill="#fec959"/>
    <path id="Tracé_30" data-name="Tracé 30" d="M410.551,146.051H398.716V148.9H410.5v10.126H398.678V175.34H383.8V132.3h26.751Z" transform="translate(915.013 2346.152)" fill="#fec959"/>
    <path id="Tracé_31" data-name="Tracé 31" d="M801.758,566.3h14.878a3.517,3.517,0,0,1,.1.609c0,8.9.091,17.8-.052,26.7-.13,8.235-4.907,13.738-13.013,15.24-1.8.337-3.638.4-5.464.583a9.6,9.6,0,0,1-1.01-.052V595.77c.1-.065.155-.129.22-.129,3.185-.233,4.3-2.162,4.325-5.231.039-7.031.013-14.062.013-21.08Z" transform="translate(555.141 1968.348)" fill="#fec959"/>
    <path id="Tracé_32" data-name="Tracé 32" d="M610.6,175.327V132.3h14.878v43.027Z" transform="translate(717.58 2346.152)" fill="#fec959"/>
    <path id="Tracé_33" data-name="Tracé 33" d="M1457.7-302.3h14.8v43.053h-14.8Z" transform="translate(-19.835 2724.479)" fill="#fec959"/>
  </g>
</svg>
