<svg xmlns="http://www.w3.org/2000/svg" width="53.08" height="37.914" viewBox="0 0 53.08 37.914"><defs><style>.a{fill:#8a847d;}</style></defs><g transform="translate(0 0)"><g transform="translate(0 0)"><path class="a" d="M13.687,972.362A5.783,5.783,0,0,0,8,978.188v26.244a5.8,5.8,0,0,0,5.687,5.845H55.393a5.8,5.8,0,0,0,5.687-5.845V978.188a5.783,5.783,0,0,0-5.687-5.825Zm.276,3.792H55.136L35.665,994.637a1.464,1.464,0,0,1-2.212,0Zm-2.172,3.159,12.915,12.243-12.915,12.875Zm45.5,0v25.118L44.413,991.537Zm-15.6,14.83,12.3,12.342H15.109l12.342-12.322,3.4,3.219a5.437,5.437,0,0,0,7.425,0Z" transform="translate(-8 -972.362)"/></g></g></svg>