<svg xmlns="http://www.w3.org/2000/svg" width="120" height="106.051" viewBox="0 0 120 106.051">
  <g id="Groupe_322" data-name="Groupe 322" transform="translate(-9018.082 -809.785)">
    <g id="triplodocusLOGO_jaune2_copie.png" data-name="triplodocusLOGO jaune2 copie.png" transform="translate(9044.71 809.785)" style="isolation: isolate">
      <path id="Tracé_6" data-name="Tracé 6" d="M198.674,67.908a2.2,2.2,0,0,0,4.259.508,2.08,2.08,0,0,0-.824-2.377,2.271,2.271,0,0,0-2.872.3,1.941,1.941,0,0,0-.577-.907,5.994,5.994,0,0,1,1.333-.714,5.427,5.427,0,0,1,3.2-.33,5.328,5.328,0,0,1,2.927,1.8,2.785,2.785,0,0,1,.55,1.456,7.738,7.738,0,0,1-.1,2.322c-.137.907-.261,1.8-.357,2.707-.124,1.072-.261,2.13-.371,3.2-.11.962-.192,1.924-.289,2.885-.11,1.2-.206,2.377-.3,3.572-.027.33-.055.659-.069.989-.1,1.676-.192,3.352-.247,5.029-.041,1.621-.041,3.229.041,4.85a17.044,17.044,0,0,0,.426,3.229,4.649,4.649,0,0,0,.289.838,1.539,1.539,0,0,0,.879.879,6.984,6.984,0,0,0,1.91.495,2.593,2.593,0,0,0,.921-.082,1.806,1.806,0,0,0,1.305-1.346,12.034,12.034,0,0,0,.33-1.841c.137-1.058.22-2.116.316-3.174.055-.618.1-1.223.137-1.841.069-.976.124-1.951.192-2.927.027-.508.055-1,.069-1.511.027-.948.069-1.882.1-2.83.1-2.638.124-5.276.1-7.914-.014-1.237-.055-2.487-.124-3.723a43.385,43.385,0,0,0-.453-4.616,21.717,21.717,0,0,0-.879-3.339,54.966,54.966,0,0,1-1.621-5.7,16.925,16.925,0,0,1-.44-3.723,7.356,7.356,0,0,1,.275-2.047,4.406,4.406,0,0,1,2.885-3.105,5.841,5.841,0,0,1,2.514-.412,6.09,6.09,0,0,1,3.036,1.1,1.985,1.985,0,0,0-1.072,1.951,2.655,2.655,0,0,0-2.281-.041,2.451,2.451,0,0,0-1.113,1.03,2.373,2.373,0,0,0,.316,2.734,2.53,2.53,0,0,0,2.872.618,2.494,2.494,0,0,0,1.443-2.817,1.041,1.041,0,0,1,.412.069,1.893,1.893,0,0,0,2.185-1.621c.014-.137.069-.179.192-.22a20.686,20.686,0,0,1,2.775-.563,17.2,17.2,0,0,1,2.652-.179,9.612,9.612,0,0,1,3.394.6,5.109,5.109,0,0,1,3.311,3.957,5.916,5.916,0,0,1-.055,2.9,3.95,3.95,0,0,1-1.539,2.157,7.4,7.4,0,0,1-2.088,1.03c-1.14.385-2.336.632-3.5.934a10.917,10.917,0,0,0-2.542.879,3.668,3.668,0,0,0-.962.673,2.692,2.692,0,0,0-.783,1.5,25.247,25.247,0,0,0-.261,2.679c-.151,2.487-.151,4.987-.11,7.474.041,1.978.11,3.957.261,5.922.082,1.072.151,2.143.261,3.215a56.909,56.909,0,0,0,1.237,7.9,16.593,16.593,0,0,0,1.2,3.517,5.055,5.055,0,0,0,1.154,1.635,1.748,1.748,0,0,0,1.484.467,1.77,1.77,0,0,0,1.415-1,6.724,6.724,0,0,0,.508-1.937,19.99,19.99,0,0,0,.137-2.4c.055-2.061.055-4.136.041-6.2-.014-1.553-.027-3.105-.069-4.644-.041-1.319-.11-2.638-.179-3.957-.027-.495-.082-.989-.137-1.47a3.393,3.393,0,0,0-.275-.948,21.868,21.868,0,0,1-1.14-4.355,11.065,11.065,0,0,1-.027-3.806,4.966,4.966,0,0,1,.879-2.116,4.176,4.176,0,0,1,2.762-1.594,8.553,8.553,0,0,1,1.772-.124,3.776,3.776,0,0,1,1.869.577c.192.11.192.124.069.289a1.978,1.978,0,0,0-.357,1.36,2.506,2.506,0,0,0-2.24-.44,2.355,2.355,0,0,0-1.264,3.7,2.48,2.48,0,0,0,2.94.728,2.411,2.411,0,0,0,1.36-2.83,2.945,2.945,0,0,0,.742.247,1.771,1.771,0,0,0,1.841-.948.529.529,0,0,1,.33-.289,24.509,24.509,0,0,1,4.713-1.319,7.774,7.774,0,0,1,2.459-.1,2.962,2.962,0,0,1,1.58.673,5.641,5.641,0,0,1,1.731,2.487,3.464,3.464,0,0,1-.165,2.542A6.642,6.642,0,0,1,245.5,72.4a16.855,16.855,0,0,1-3.284,2.185c-1.085.577-2.212,1.072-3.325,1.594a1.836,1.836,0,0,1-.247.1,2,2,0,0,0-1.264,1.264,4.1,4.1,0,0,0-.261,1.525c0,1.553-.027,3.105-.014,4.644,0,.687,0,1.388.014,2.075.055,1.992.124,3.971.179,5.963.027,1.072.041,2.157.082,3.229a7.753,7.753,0,0,0,1.264,3.971c1.2,1.8,2.432,3.572,3.778,5.276a27.053,27.053,0,0,0,1.786,2.157c.179.192.179.192-.027.426a35.757,35.757,0,0,1-15.278,9.961,35.914,35.914,0,0,1-6.114,1.429,29.846,29.846,0,0,1-4.562.33c-.893-.014-1.772.041-2.665-.014a36.33,36.33,0,0,1-4.891-.618,35.87,35.87,0,0,1-20.074-11.637c-.027-.027-.055-.069-.082-.1-.082-.082-.1-.165,0-.247.069-.055.124-.124.192-.179a16.6,16.6,0,0,0,3.036-3.875,9.715,9.715,0,0,0,1.1-3.256c.179-1.154.385-2.322.563-3.476.247-1.566.508-3.119.756-4.685.22-1.415.44-2.817.632-4.232.165-1.154.33-2.308.44-3.462a24.045,24.045,0,0,0,.179-2.624c0-.179-.027-.343-.027-.522a.6.6,0,0,0-.371-.508,1.455,1.455,0,0,0-.934-.137,4.468,4.468,0,0,0-.577.151,9.575,9.575,0,0,1-2.336.412,13.021,13.021,0,0,1-2.638,0,8.462,8.462,0,0,1-3.009-.769,4.119,4.119,0,0,1-2.4-3.146,4.689,4.689,0,0,1,.824-3.82,6.141,6.141,0,0,1,1.937-1.621,13.146,13.146,0,0,1,3.778-1.319,19.747,19.747,0,0,1,2.377-.316,3.194,3.194,0,0,0,.385-.069,12.582,12.582,0,0,0,1.69-.646c.124-.055.22-.11.357.014a1.717,1.717,0,0,0,2.157.1C198.6,67.922,198.632,67.922,198.674,67.908Z" transform="translate(-185.019 -48.493)" fill="#262626"/>
      <g id="Groupe_22" data-name="Groupe 22" transform="translate(11.304 2.707)">
        <path id="Tracé_7" data-name="Tracé 7" d="M527.778,180.1a.64.64,0,1,1-.659-.6A.67.67,0,0,1,527.778,180.1Z" transform="translate(-490.886 -164.207)" fill="#262626"/>
        <path id="Tracé_8" data-name="Tracé 8" d="M289.775,184.332a.64.64,0,1,1-.632-.632A.68.68,0,0,1,289.775,184.332Z" transform="translate(-285.584 -167.83)" fill="#262626"/>
        <path id="Tracé_9" data-name="Tracé 9" d="M406.146,82.423a.647.647,0,0,1-.646-.6.637.637,0,0,1,.632-.618.61.61,0,0,1,.618.591A.624.624,0,0,1,406.146,82.423Z" transform="translate(-386.511 -79.413)" fill="#262626"/>
        <path id="Tracé_10" data-name="Tracé 10" d="M267.736,177.175a.462.462,0,0,1-.44-.44.47.47,0,0,1,.481-.44.44.44,0,1,1-.041.879Z" transform="translate(-267.296 -161.443)" fill="#262626"/>
        <path id="Tracé_11" data-name="Tracé 11" d="M426.607,68.664a.462.462,0,0,1-.453.426.5.5,0,0,1-.453-.44.454.454,0,1,1,.907.014Z" transform="translate(-403.936 -68.196)" fill="#262626"/>
        <path id="Tracé_12" data-name="Tracé 12" d="M549.153,167.361a.433.433,0,1,1-.014-.866.441.441,0,0,1,.467.44A.453.453,0,0,1,549.153,167.361Z" transform="translate(-510.036 -152.989)" fill="#262626"/>
      </g>
    </g>
    <text id="triplodocus." transform="translate(9018.082 910.836)" fill="#262626" font-size="19" font-family="Comfortaa-Bold, Comfortaa" font-weight="700"><tspan x="0" y="0">triplodocus.</tspan></text>
  </g>
</svg>
