<svg xmlns="http://www.w3.org/2000/svg" width="149.903" height="167.769" viewBox="0 0 149.903 167.769"><defs><style>.a{mix-blend-mode:multiply;isolation:isolate;}.b{fill:#262626;}</style></defs><g class="a" transform="translate(-185.019 -48.493)"><path class="b" d="M217.725,95a5.262,5.262,0,0,0,10.2,1.218,4.981,4.981,0,0,0-1.975-5.693,5.44,5.44,0,0,0-6.878.724,4.649,4.649,0,0,0-1.382-2.172,14.357,14.357,0,0,1,3.192-1.711,13,13,0,0,1,7.668-.79,12.761,12.761,0,0,1,7.01,4.311,6.671,6.671,0,0,1,1.316,3.488,18.537,18.537,0,0,1-.23,5.562c-.329,2.172-.625,4.311-.856,6.483-.3,2.567-.625,5.1-.889,7.668-.263,2.3-.461,4.607-.691,6.911-.263,2.863-.494,5.693-.724,8.556-.066.79-.132,1.58-.165,2.369-.23,4.015-.461,8.03-.592,12.045-.1,3.883-.1,7.734.1,11.617a40.823,40.823,0,0,0,1.02,7.734,11.141,11.141,0,0,0,.691,2.007,3.687,3.687,0,0,0,2.106,2.106,16.728,16.728,0,0,0,4.574,1.185,6.21,6.21,0,0,0,2.2-.2,4.327,4.327,0,0,0,3.126-3.225,28.818,28.818,0,0,0,.79-4.41c.329-2.534.527-5.068.757-7.6.132-1.481.23-2.929.329-4.41.165-2.337.3-4.673.461-7.01.066-1.218.132-2.4.165-3.62.066-2.271.165-4.509.23-6.779.23-6.319.3-12.637.23-18.956-.033-2.962-.132-5.957-.3-8.918a103.922,103.922,0,0,0-1.086-11.058,52.026,52.026,0,0,0-2.106-8,131.648,131.648,0,0,1-3.883-13.657,40.537,40.537,0,0,1-1.053-8.918,17.619,17.619,0,0,1,.658-4.9,10.555,10.555,0,0,1,6.911-7.438,13.991,13.991,0,0,1,6.022-.987,14.586,14.586,0,0,1,7.273,2.633,4.755,4.755,0,0,0-2.567,4.673,6.359,6.359,0,0,0-5.463-.1A5.87,5.87,0,0,0,251.26,58.2a5.684,5.684,0,0,0,.757,6.549,6.06,6.06,0,0,0,6.878,1.481c2.6-1.119,3.719-3.324,3.456-6.746a2.494,2.494,0,0,1,.987.165,4.535,4.535,0,0,0,5.233-3.883c.033-.329.165-.428.461-.527a49.549,49.549,0,0,1,6.648-1.349,41.2,41.2,0,0,1,6.352-.428,23.022,23.022,0,0,1,8.129,1.448,12.236,12.236,0,0,1,7.931,9.478,14.17,14.17,0,0,1-.132,6.944,9.462,9.462,0,0,1-3.686,5.167,17.728,17.728,0,0,1-5,2.468c-2.731.921-5.595,1.514-8.392,2.238a26.149,26.149,0,0,0-6.088,2.106,8.784,8.784,0,0,0-2.3,1.613,6.448,6.448,0,0,0-1.876,3.587,60.472,60.472,0,0,0-.625,6.417c-.362,5.957-.362,11.946-.263,17.9.1,4.739.263,9.478.625,14.184.2,2.567.362,5.134.625,7.7a136.317,136.317,0,0,0,2.962,18.923,39.747,39.747,0,0,0,2.863,8.425,12.108,12.108,0,0,0,2.764,3.916,4.188,4.188,0,0,0,3.554,1.119,4.239,4.239,0,0,0,3.39-2.4,16.1,16.1,0,0,0,1.218-4.64,47.879,47.879,0,0,0,.329-5.759c.132-4.936.132-9.906.1-14.842-.033-3.719-.066-7.438-.165-11.123-.1-3.159-.263-6.319-.428-9.478-.066-1.185-.2-2.369-.329-3.521a8.129,8.129,0,0,0-.658-2.271,52.374,52.374,0,0,1-2.731-10.432,26.5,26.5,0,0,1-.066-9.116,11.9,11.9,0,0,1,2.106-5.068A10,10,0,0,1,292.5,84.63a20.487,20.487,0,0,1,4.245-.3,9.045,9.045,0,0,1,4.476,1.382c.461.263.461.3.165.691a4.739,4.739,0,0,0-.856,3.258,6,6,0,0,0-5.364-1.053,5.641,5.641,0,0,0-3.028,8.853,5.941,5.941,0,0,0,7.043,1.744c2.6-1.119,3.719-3.488,3.258-6.779a7.055,7.055,0,0,0,1.777.592,4.243,4.243,0,0,0,4.41-2.271,1.267,1.267,0,0,1,.79-.691A58.707,58.707,0,0,1,320.7,86.9a18.621,18.621,0,0,1,5.891-.23,7.1,7.1,0,0,1,3.785,1.613,13.512,13.512,0,0,1,4.147,5.957,8.3,8.3,0,0,1-.395,6.088,15.909,15.909,0,0,1-4.245,5.43,40.372,40.372,0,0,1-7.865,5.233c-2.6,1.382-5.3,2.567-7.964,3.818a4.393,4.393,0,0,1-.592.23,4.781,4.781,0,0,0-3.028,3.028,9.813,9.813,0,0,0-.625,3.653c0,3.719-.066,7.438-.033,11.123,0,1.645,0,3.324.033,4.969.132,4.772.3,9.511.428,14.283.066,2.567.1,5.167.2,7.734a18.57,18.57,0,0,0,3.028,9.511c2.863,4.311,5.825,8.556,9.05,12.637a64.792,64.792,0,0,0,4.278,5.167c.428.461.428.461-.066,1.02a85.646,85.646,0,0,1-36.6,23.859,86.022,86.022,0,0,1-14.645,3.423,71.492,71.492,0,0,1-10.926.79c-2.139-.033-4.245.1-6.384-.033a87.023,87.023,0,0,1-11.716-1.481,85.917,85.917,0,0,1-48.081-27.874c-.066-.066-.132-.165-.2-.23-.2-.2-.23-.395,0-.592.165-.132.3-.3.461-.428a39.764,39.764,0,0,0,7.273-9.28,23.271,23.271,0,0,0,2.633-7.8c.428-2.764.921-5.562,1.349-8.326.592-3.752,1.218-7.47,1.81-11.222.527-3.39,1.053-6.746,1.514-10.136.395-2.764.79-5.529,1.053-8.293a57.608,57.608,0,0,0,.428-6.286c0-.428-.066-.823-.066-1.251a1.444,1.444,0,0,0-.889-1.218,3.486,3.486,0,0,0-2.238-.329,10.7,10.7,0,0,0-1.382.362,22.935,22.935,0,0,1-5.595.987,31.186,31.186,0,0,1-6.319,0A20.268,20.268,0,0,1,191,120.962a9.867,9.867,0,0,1-5.759-7.536,11.231,11.231,0,0,1,1.975-9.149,14.71,14.71,0,0,1,4.64-3.883,31.487,31.487,0,0,1,9.05-3.159,47.3,47.3,0,0,1,5.693-.757,7.654,7.654,0,0,0,.921-.165,30.138,30.138,0,0,0,4.048-1.547c.3-.132.527-.263.856.033a4.113,4.113,0,0,0,5.167.23C217.56,95.029,217.626,95.029,217.725,95Z" transform="translate(0 0)"/><g transform="translate(212.096 54.977)"><path class="b" d="M529.561,180.948a1.532,1.532,0,1,1-1.58-1.448A1.6,1.6,0,0,1,529.561,180.948Z" transform="translate(-441.197 -142.87)"/><path class="b" d="M291.558,185.214a1.533,1.533,0,1,1-1.514-1.514A1.628,1.628,0,0,1,291.558,185.214Z" transform="translate(-281.519 -145.688)"/><path class="b" d="M407.047,84.129a1.55,1.55,0,0,1-1.547-1.448,1.525,1.525,0,0,1,1.514-1.481,1.462,1.462,0,0,1,1.481,1.415A1.5,1.5,0,0,1,407.047,84.129Z" transform="translate(-360.018 -76.92)"/><path class="b" d="M268.35,178.4a1.106,1.106,0,0,1-1.053-1.053,1.127,1.127,0,0,1,1.152-1.053,1.054,1.054,0,1,1-.1,2.106Z" transform="translate(-267.296 -140.72)"/><path class="b" d="M427.872,69.316a1.107,1.107,0,0,1-1.086,1.02,1.192,1.192,0,0,1-1.086-1.053,1.086,1.086,0,1,1,2.172.033Z" transform="translate(-373.57 -68.196)"/><path class="b" d="M549.786,168.57a1.037,1.037,0,1,1-.033-2.073,1.056,1.056,0,0,1,1.119,1.053A1.084,1.084,0,0,1,549.786,168.57Z" transform="translate(-456.091 -134.145)"/></g></g></svg>