<svg xmlns="http://www.w3.org/2000/svg" width="790.789" height="885.038" viewBox="0 0 790.789 885.038"><defs><style>.a{fill:#eae4dc;}</style></defs><g transform="translate(-185.019 -48.493)"><path class="a" d="M357.553,293.814c3.125,18.75,16.493,25,27.43,25a27.2,27.2,0,0,0,26.389-18.576A26.277,26.277,0,0,0,400.955,270.2c-9.375-6.423-23.958-7.465-36.284,3.819-1.562-4.34-3.472-8.333-7.292-11.458a75.739,75.739,0,0,1,16.84-9.028c13.021-5.035,26.389-7.292,40.451-4.167,14.93,3.3,27.083,11.285,36.979,22.743,4.514,5.208,5.9,11.805,6.944,18.4,1.563,9.9.174,19.618-1.215,29.34-1.736,11.458-3.3,22.743-4.514,34.2-1.562,13.542-3.3,26.909-4.687,40.451-1.389,12.153-2.431,24.305-3.646,36.458-1.389,15.1-2.6,30.034-3.819,45.138-.347,4.167-.694,8.333-.868,12.5-1.215,21.18-2.431,42.361-3.125,63.541-.521,20.486-.521,40.8.521,61.284.694,13.715,2.083,27.43,5.382,40.8a58.768,58.768,0,0,0,3.646,10.59c2.257,5.035,5.556,9.028,11.111,11.111,7.812,2.951,15.625,5.555,24.132,6.25a32.761,32.761,0,0,0,11.632-1.042c8.854-2.431,14.062-8.507,16.493-17.014,2.257-7.639,3.125-15.451,4.167-23.264,1.736-13.368,2.778-26.736,3.993-40.1.694-7.812,1.215-15.451,1.736-23.264.868-12.326,1.562-24.652,2.43-36.979.347-6.424.695-12.673.868-19.1.347-11.979.868-23.785,1.215-35.763,1.215-33.333,1.563-66.666,1.215-100-.174-15.625-.694-31.423-1.563-47.048-1.042-19.444-2.6-39.062-5.729-58.333-2.257-14.41-6.6-28.3-11.111-42.187-7.812-23.784-15.278-47.569-20.486-72.048-3.3-15.451-5.729-31.076-5.556-47.048a92.946,92.946,0,0,1,3.472-25.868C489.669,73.852,502,60.658,520.745,53.887c10.243-3.819,20.833-6.076,31.77-5.208C566.4,49.72,578.9,54.408,590.883,62.567c-9.549,5.555-14.062,13.541-13.542,24.652-9.722-4.34-19.271-4.861-28.819-.521A30.969,30.969,0,0,0,534.46,99.719c-6.25,10.937-4.514,25,3.993,34.548a31.966,31.966,0,0,0,36.284,7.812c13.715-5.9,19.618-17.534,18.229-35.59,1.91-.347,3.472.521,5.208.868,14.062,2.083,26.215-7.812,27.6-20.486.174-1.736.868-2.257,2.43-2.778a261.379,261.379,0,0,1,35.069-7.118c11.111-1.389,22.4-2.6,33.506-2.257,14.583.347,28.993,2.083,42.881,7.639,23.09,9.2,36.979,25.868,41.84,50,2.431,12.326,2.951,24.479-.695,36.631-3.3,11.458-9.9,20.312-19.444,27.257-7.986,5.9-17.014,9.9-26.389,13.021-14.409,4.861-29.513,7.986-44.27,11.805C679.6,223.85,668.66,226.8,658.59,232.183a46.339,46.339,0,0,0-12.153,8.507,34.017,34.017,0,0,0-9.9,18.923c-1.91,11.285-2.6,22.569-3.3,33.854-1.91,31.423-1.91,63.02-1.389,94.443.521,25,1.389,50,3.3,74.825,1.042,13.541,1.91,27.083,3.3,40.625,3.3,33.507,7.639,67.013,15.625,99.825,3.646,15.278,8.16,30.381,15.1,44.444,3.819,7.639,7.986,14.93,14.583,20.659,5.382,4.687,11.632,7.118,18.75,5.9,7.812-1.389,14.236-4.861,17.882-12.674a84.954,84.954,0,0,0,6.424-24.479c1.389-10.069,1.562-20.139,1.736-30.382.695-26.041.695-52.256.521-78.3-.174-19.618-.347-39.236-.868-58.68-.521-16.667-1.389-33.333-2.257-50-.347-6.25-1.042-12.5-1.736-18.576-.347-4.167-1.91-7.986-3.472-11.979a276.3,276.3,0,0,1-14.409-55.034c-2.431-15.972-3.472-32.118-.347-48.09,1.91-9.722,5.035-18.75,11.111-26.736,8.854-11.632,20.659-17.708,34.9-20.139a108.072,108.072,0,0,1,22.4-1.562A47.717,47.717,0,0,1,798,244.856c2.431,1.389,2.431,1.562.868,3.646-3.646,4.861-4.861,10.417-4.514,17.187-8.854-6.424-18.229-8.333-28.3-5.555a29.759,29.759,0,0,0-15.972,46.7,31.341,31.341,0,0,0,37.152,9.2c13.715-5.9,19.618-18.4,17.187-35.763A37.218,37.218,0,0,0,813.8,283.4c10.764,1.389,19.791-4.514,23.264-11.979a6.684,6.684,0,0,1,4.167-3.646c19.444-7.292,39.062-13.368,59.548-16.666,10.243-1.736,20.66-2.778,31.076-1.215,7.292,1.215,14.236,3.3,19.965,8.507,9.722,8.854,17.882,18.576,21.875,31.423a43.764,43.764,0,0,1-2.083,32.118c-5.035,11.458-13.194,20.486-22.4,28.645-12.673,11.111-26.736,19.791-41.493,27.6-13.715,7.292-27.951,13.542-42.013,20.139a23.183,23.183,0,0,1-3.125,1.215c-7.986,2.6-13.021,8.333-15.972,15.972a51.766,51.766,0,0,0-3.3,19.271c0,19.618-.347,39.236-.174,58.68,0,8.68,0,17.534.174,26.215.695,25.173,1.563,50.173,2.257,75.346.347,13.541.521,27.257,1.042,40.8.868,18.055,5.9,34.9,15.972,50.173,15.1,22.743,30.729,45.138,47.743,66.666,7.292,9.375,14.41,18.75,22.569,27.257,2.257,2.431,2.257,2.431-.347,5.382A451.811,451.811,0,0,1,739.492,911.167a453.8,453.8,0,0,1-77.256,18.055,377.127,377.127,0,0,1-57.638,4.167c-11.285-.174-22.4.521-33.68-.174a459.078,459.078,0,0,1-61.8-7.812c-71.874-14.236-136.283-44.27-193.747-89.756a444.726,444.726,0,0,1-59.9-57.291c-.347-.347-.694-.868-1.042-1.215-1.042-1.042-1.215-2.083,0-3.125.868-.694,1.562-1.562,2.43-2.257,15.1-14.583,28.125-30.555,38.368-48.958a122.766,122.766,0,0,0,13.889-41.145c2.257-14.583,4.861-29.34,7.118-43.923,3.125-19.791,6.423-39.409,9.548-59.2,2.778-17.882,5.556-35.59,7.986-53.471,2.083-14.583,4.167-29.166,5.556-43.749,1.042-11.111,2.431-22.048,2.257-33.159,0-2.257-.347-4.34-.347-6.6-.174-3.125-2.083-5.035-4.687-6.424a18.391,18.391,0,0,0-11.805-1.736,56.45,56.45,0,0,0-7.292,1.91c-9.548,3.472-19.444,4.167-29.513,5.208a164.516,164.516,0,0,1-33.333,0c-13.194-1.215-26.041-3.819-38.02-9.722-16.666-8.16-27.257-21.18-30.381-39.756-2.951-17.361-.694-33.854,10.417-48.263A77.6,77.6,0,0,1,221.1,322.286c14.93-8.333,31.076-13.194,47.742-16.667a249.521,249.521,0,0,1,30.034-3.993,40.376,40.376,0,0,0,4.861-.868,158.991,158.991,0,0,0,21.354-8.16c1.563-.694,2.778-1.389,4.514.174,7.118,6.771,19.444,7.292,27.257,1.215C356.685,293.988,357.032,293.988,357.553,293.814Z" transform="translate(0 0)"/><g transform="translate(327.858 82.699)"><path class="a" d="M542.646,187.139c.174,3.993-3.646,7.986-7.986,7.986a8.2,8.2,0,0,1-8.16-7.812c0-3.993,3.646-7.639,7.812-7.812C538.479,179.5,542.472,182.972,542.646,187.139Z" transform="translate(-76.498 13.734)"/><path class="a" d="M304.648,191.686c0,3.993-4.167,7.812-8.333,7.639s-7.986-3.993-7.812-8.16c.174-3.993,3.993-7.465,8.16-7.465C300.829,183.874,304.648,187.693,304.648,191.686Z" transform="translate(-251.69 16.825)"/><path class="a" d="M413.659,96.651c-4.167.174-8.16-3.646-8.16-7.639a8.045,8.045,0,0,1,7.986-7.812,7.711,7.711,0,0,1,7.812,7.465A7.888,7.888,0,0,1,413.659,96.651Z" transform="translate(-165.565 -58.624)"/><path class="a" d="M272.859,187.414c-2.951-.174-5.729-2.778-5.555-5.555a5.944,5.944,0,0,1,6.076-5.555c2.951.174,5.556,2.951,5.382,5.729A5.871,5.871,0,0,1,272.859,187.414Z" transform="translate(-267.296 11.375)"/><path class="a" d="M437.158,74.106a5.842,5.842,0,0,1-5.729,5.382,6.29,6.29,0,0,1-5.729-5.555c0-2.951,3.125-5.9,5.9-5.729C434.728,68.55,437.332,71.328,437.158,74.106Z" transform="translate(-150.696 -68.196)"/><path class="a" d="M554.429,177.441a5.472,5.472,0,1,1-.174-10.937,5.571,5.571,0,0,1,5.9,5.556A5.719,5.719,0,0,1,554.429,177.441Z" transform="translate(-60.157 4.161)"/></g></g></svg>